<mxfile host="Electron" agent="Mozilla/5.0 (Windows NT 10.0; Win64; x64) AppleWebKit/537.36 (KHTML, like Gecko) draw.io/25.0.2 Chrome/128.0.6613.186 Electron/32.2.5 Safari/537.36" version="25.0.2" pages="2">
  <diagram id="C5RBs43oDa-KdzZeNtuy" name="Page-1">
    <mxGraphModel dx="1613" dy="776" grid="1" gridSize="10" guides="1" tooltips="1" connect="1" arrows="1" fold="1" page="1" pageScale="1" pageWidth="827" pageHeight="1169" math="0" shadow="0">
      <root>
        <mxCell id="WIyWlLk6GJQsqaUBKTNV-0" />
        <mxCell id="WIyWlLk6GJQsqaUBKTNV-1" parent="WIyWlLk6GJQsqaUBKTNV-0" />
        <mxCell id="Szom3RDStBW0AztOvYwL-0" value="" style="ellipse;whiteSpace=wrap;html=1;" vertex="1" parent="WIyWlLk6GJQsqaUBKTNV-1">
          <mxGeometry x="220" y="120" width="120" height="80" as="geometry" />
        </mxCell>
        <mxCell id="Szom3RDStBW0AztOvYwL-1" value="START" style="text;html=1;align=center;verticalAlign=middle;resizable=0;points=[];autosize=1;strokeColor=none;fillColor=none;" vertex="1" parent="WIyWlLk6GJQsqaUBKTNV-1">
          <mxGeometry x="250" y="145" width="60" height="30" as="geometry" />
        </mxCell>
        <mxCell id="Szom3RDStBW0AztOvYwL-2" value="" style="shape=parallelogram;perimeter=parallelogramPerimeter;whiteSpace=wrap;html=1;fixedSize=1;" vertex="1" parent="WIyWlLk6GJQsqaUBKTNV-1">
          <mxGeometry x="220" y="250" width="120" height="60" as="geometry" />
        </mxCell>
        <mxCell id="Szom3RDStBW0AztOvYwL-3" value="" style="endArrow=classic;html=1;rounded=0;" edge="1" parent="WIyWlLk6GJQsqaUBKTNV-1">
          <mxGeometry width="50" height="50" relative="1" as="geometry">
            <mxPoint x="210" y="260" as="sourcePoint" />
            <mxPoint x="240" y="260" as="targetPoint" />
          </mxGeometry>
        </mxCell>
        <mxCell id="Szom3RDStBW0AztOvYwL-7" value="&lt;font style=&quot;font-size: 11px;&quot;&gt;Input Nama&lt;/font&gt;&lt;div&gt;&lt;font style=&quot;font-size: 11px;&quot;&gt;dan NIM&lt;/font&gt;&lt;/div&gt;" style="text;html=1;align=center;verticalAlign=middle;resizable=0;points=[];autosize=1;strokeColor=none;fillColor=none;" vertex="1" parent="WIyWlLk6GJQsqaUBKTNV-1">
          <mxGeometry x="240" y="260" width="80" height="40" as="geometry" />
        </mxCell>
        <mxCell id="Szom3RDStBW0AztOvYwL-8" value="" style="edgeStyle=none;orthogonalLoop=1;jettySize=auto;html=1;rounded=0;" edge="1" parent="WIyWlLk6GJQsqaUBKTNV-1">
          <mxGeometry width="100" relative="1" as="geometry">
            <mxPoint x="279.71" y="200" as="sourcePoint" />
            <mxPoint x="279.71" y="250" as="targetPoint" />
            <Array as="points" />
          </mxGeometry>
        </mxCell>
        <mxCell id="Szom3RDStBW0AztOvYwL-9" value="" style="edgeStyle=none;orthogonalLoop=1;jettySize=auto;html=1;rounded=0;" edge="1" parent="WIyWlLk6GJQsqaUBKTNV-1">
          <mxGeometry width="100" relative="1" as="geometry">
            <mxPoint x="279.71" y="310" as="sourcePoint" />
            <mxPoint x="280" y="360" as="targetPoint" />
            <Array as="points" />
          </mxGeometry>
        </mxCell>
        <mxCell id="Szom3RDStBW0AztOvYwL-10" value="" style="rhombus;whiteSpace=wrap;html=1;" vertex="1" parent="WIyWlLk6GJQsqaUBKTNV-1">
          <mxGeometry x="190" y="360" width="180" height="110" as="geometry" />
        </mxCell>
        <mxCell id="Szom3RDStBW0AztOvYwL-11" value="nama == Ghesya&lt;div&gt;&amp;amp;&amp;amp;&lt;/div&gt;&lt;div&gt;nim == 023&lt;/div&gt;" style="text;html=1;align=center;verticalAlign=middle;resizable=0;points=[];autosize=1;strokeColor=none;fillColor=none;" vertex="1" parent="WIyWlLk6GJQsqaUBKTNV-1">
          <mxGeometry x="220" y="385" width="120" height="60" as="geometry" />
        </mxCell>
        <mxCell id="Szom3RDStBW0AztOvYwL-33" style="edgeStyle=orthogonalEdgeStyle;rounded=0;orthogonalLoop=1;jettySize=auto;html=1;exitX=0.5;exitY=1;exitDx=0;exitDy=0;entryX=0.5;entryY=0;entryDx=0;entryDy=0;" edge="1" parent="WIyWlLk6GJQsqaUBKTNV-1" source="Szom3RDStBW0AztOvYwL-12">
          <mxGeometry relative="1" as="geometry">
            <mxPoint x="280" y="700" as="targetPoint" />
          </mxGeometry>
        </mxCell>
        <mxCell id="Szom3RDStBW0AztOvYwL-12" value="" style="shape=parallelogram;perimeter=parallelogramPerimeter;whiteSpace=wrap;html=1;fixedSize=1;" vertex="1" parent="WIyWlLk6GJQsqaUBKTNV-1">
          <mxGeometry x="141.88" y="515" width="276.25" height="140" as="geometry" />
        </mxCell>
        <mxCell id="Szom3RDStBW0AztOvYwL-13" value="=== KONVERSI SUHU ===&lt;div&gt;1. Celcius ke Fahrenheit, Reamur, dan Kelvin&lt;/div&gt;&lt;div&gt;2. Fahrenheit ke Celcius, Reamur, dan Kelvin&lt;/div&gt;&lt;div&gt;3. Reamur ke Celcius, Fahrenheit, dan Kelvin&lt;/div&gt;&lt;div&gt;4. Kelvin ke Celcius, Fahrenheit, dan Reamur&lt;/div&gt;&lt;div&gt;5. Keluar dari program&lt;/div&gt;&lt;div&gt;Pilih opsi (1-5):&lt;/div&gt;" style="text;html=1;align=center;verticalAlign=middle;resizable=0;points=[];autosize=1;strokeColor=none;fillColor=none;" vertex="1" parent="WIyWlLk6GJQsqaUBKTNV-1">
          <mxGeometry x="150" y="530" width="260" height="110" as="geometry" />
        </mxCell>
        <mxCell id="Szom3RDStBW0AztOvYwL-16" value="" style="edgeStyle=none;orthogonalLoop=1;jettySize=auto;html=1;rounded=0;" edge="1" parent="WIyWlLk6GJQsqaUBKTNV-1">
          <mxGeometry width="100" relative="1" as="geometry">
            <mxPoint x="130" y="520" as="sourcePoint" />
            <mxPoint x="160" y="520" as="targetPoint" />
            <Array as="points" />
          </mxGeometry>
        </mxCell>
        <mxCell id="Szom3RDStBW0AztOvYwL-17" value="" style="edgeStyle=none;orthogonalLoop=1;jettySize=auto;html=1;rounded=0;" edge="1" parent="WIyWlLk6GJQsqaUBKTNV-1">
          <mxGeometry width="100" relative="1" as="geometry">
            <mxPoint x="280" y="470" as="sourcePoint" />
            <mxPoint x="280" y="515" as="targetPoint" />
            <Array as="points" />
          </mxGeometry>
        </mxCell>
        <mxCell id="Szom3RDStBW0AztOvYwL-18" value="" style="rhombus;whiteSpace=wrap;html=1;" vertex="1" parent="WIyWlLk6GJQsqaUBKTNV-1">
          <mxGeometry x="495" y="373.75" width="125" height="82.5" as="geometry" />
        </mxCell>
        <mxCell id="Szom3RDStBW0AztOvYwL-19" value="Percobaan &amp;lt; 3" style="text;html=1;align=center;verticalAlign=middle;resizable=0;points=[];autosize=1;strokeColor=none;fillColor=none;" vertex="1" parent="WIyWlLk6GJQsqaUBKTNV-1">
          <mxGeometry x="507.5" y="400" width="100" height="30" as="geometry" />
        </mxCell>
        <mxCell id="Szom3RDStBW0AztOvYwL-22" value="" style="edgeStyle=none;orthogonalLoop=1;jettySize=auto;html=1;rounded=0;exitX=0.5;exitY=0;exitDx=0;exitDy=0;entryX=1;entryY=0.5;entryDx=0;entryDy=0;" edge="1" parent="WIyWlLk6GJQsqaUBKTNV-1" source="Szom3RDStBW0AztOvYwL-18" target="Szom3RDStBW0AztOvYwL-2">
          <mxGeometry width="100" relative="1" as="geometry">
            <mxPoint x="460" y="290" as="sourcePoint" />
            <mxPoint x="560" y="290" as="targetPoint" />
            <Array as="points">
              <mxPoint x="558" y="280" />
            </Array>
          </mxGeometry>
        </mxCell>
        <mxCell id="Szom3RDStBW0AztOvYwL-23" value="" style="edgeStyle=none;orthogonalLoop=1;jettySize=auto;html=1;rounded=0;entryX=0;entryY=0.5;entryDx=0;entryDy=0;" edge="1" parent="WIyWlLk6GJQsqaUBKTNV-1" target="Szom3RDStBW0AztOvYwL-18">
          <mxGeometry width="100" relative="1" as="geometry">
            <mxPoint x="370" y="414.55" as="sourcePoint" />
            <mxPoint x="470" y="414.55" as="targetPoint" />
            <Array as="points" />
          </mxGeometry>
        </mxCell>
        <mxCell id="Szom3RDStBW0AztOvYwL-30" style="edgeStyle=orthogonalEdgeStyle;rounded=0;orthogonalLoop=1;jettySize=auto;html=1;exitX=1;exitY=1;exitDx=0;exitDy=0;" edge="1" parent="WIyWlLk6GJQsqaUBKTNV-1" source="Szom3RDStBW0AztOvYwL-24">
          <mxGeometry relative="1" as="geometry">
            <mxPoint x="680" y="579.3880597014925" as="targetPoint" />
          </mxGeometry>
        </mxCell>
        <mxCell id="Szom3RDStBW0AztOvYwL-24" value="" style="shape=parallelogram;perimeter=parallelogramPerimeter;whiteSpace=wrap;html=1;fixedSize=1;" vertex="1" parent="WIyWlLk6GJQsqaUBKTNV-1">
          <mxGeometry x="442.5" y="515" width="230" height="70" as="geometry" />
        </mxCell>
        <mxCell id="Szom3RDStBW0AztOvYwL-25" value="Login gagal setelah 3 kali percobaan.&lt;div&gt;Program berhenti&lt;/div&gt;" style="text;html=1;align=center;verticalAlign=middle;resizable=0;points=[];autosize=1;strokeColor=none;fillColor=none;" vertex="1" parent="WIyWlLk6GJQsqaUBKTNV-1">
          <mxGeometry x="447.5" y="530" width="220" height="40" as="geometry" />
        </mxCell>
        <mxCell id="Szom3RDStBW0AztOvYwL-28" value="" style="edgeStyle=none;orthogonalLoop=1;jettySize=auto;html=1;rounded=0;entryX=0.5;entryY=0;entryDx=0;entryDy=0;" edge="1" parent="WIyWlLk6GJQsqaUBKTNV-1" target="Szom3RDStBW0AztOvYwL-24">
          <mxGeometry width="100" relative="1" as="geometry">
            <mxPoint x="557.21" y="456.25" as="sourcePoint" />
            <mxPoint x="590" y="490" as="targetPoint" />
            <Array as="points" />
          </mxGeometry>
        </mxCell>
        <mxCell id="Szom3RDStBW0AztOvYwL-36" value="No" style="text;html=1;align=center;verticalAlign=middle;resizable=0;points=[];autosize=1;strokeColor=none;fillColor=none;" vertex="1" parent="WIyWlLk6GJQsqaUBKTNV-1">
          <mxGeometry x="410" y="385" width="40" height="30" as="geometry" />
        </mxCell>
        <mxCell id="Szom3RDStBW0AztOvYwL-37" value="Yes" style="text;html=1;align=center;verticalAlign=middle;resizable=0;points=[];autosize=1;strokeColor=none;fillColor=none;" vertex="1" parent="WIyWlLk6GJQsqaUBKTNV-1">
          <mxGeometry x="280" y="470" width="40" height="30" as="geometry" />
        </mxCell>
        <mxCell id="Szom3RDStBW0AztOvYwL-38" value="No" style="text;html=1;align=center;verticalAlign=middle;resizable=0;points=[];autosize=1;strokeColor=none;fillColor=none;" vertex="1" parent="WIyWlLk6GJQsqaUBKTNV-1">
          <mxGeometry x="560" y="470" width="40" height="30" as="geometry" />
        </mxCell>
        <mxCell id="Szom3RDStBW0AztOvYwL-39" value="Yes" style="text;html=1;align=center;verticalAlign=middle;resizable=0;points=[];autosize=1;strokeColor=none;fillColor=none;" vertex="1" parent="WIyWlLk6GJQsqaUBKTNV-1">
          <mxGeometry x="560" y="310" width="40" height="30" as="geometry" />
        </mxCell>
        <mxCell id="Szom3RDStBW0AztOvYwL-41" value="opsi" style="verticalLabelPosition=bottom;verticalAlign=top;html=1;shape=offPageConnector;rounded=0;size=0.5;" vertex="1" parent="WIyWlLk6GJQsqaUBKTNV-1">
          <mxGeometry x="240" y="700" width="80" height="80" as="geometry" />
        </mxCell>
      </root>
    </mxGraphModel>
  </diagram>
  <diagram id="Fxpnh7LHCW9Z0xWMz1W4" name="Page-2">
    <mxGraphModel dx="1878" dy="776" grid="1" gridSize="10" guides="1" tooltips="1" connect="1" arrows="1" fold="1" page="1" pageScale="1" pageWidth="850" pageHeight="1100" math="0" shadow="0">
      <root>
        <mxCell id="0" />
        <mxCell id="1" parent="0" />
        <mxCell id="YKMGjBo34bCGhctZxWyf-1" value="opsi" style="verticalLabelPosition=bottom;verticalAlign=top;html=1;shape=offPageConnector;rounded=0;size=0.5;" parent="1" vertex="1">
          <mxGeometry x="160" y="80" width="80" height="80" as="geometry" />
        </mxCell>
        <mxCell id="YKMGjBo34bCGhctZxWyf-2" value="" style="rhombus;whiteSpace=wrap;html=1;" parent="1" vertex="1">
          <mxGeometry x="140" y="200" width="120" height="80" as="geometry" />
        </mxCell>
        <mxCell id="nTop7AtuNjiD43nLkojI-1" value="pilihan == 1" style="text;html=1;align=center;verticalAlign=middle;resizable=0;points=[];autosize=1;strokeColor=none;fillColor=none;" parent="1" vertex="1">
          <mxGeometry x="155" y="225" width="90" height="30" as="geometry" />
        </mxCell>
        <mxCell id="qkOlhmy2nCl3E5Wx2nFE-1" value="" style="rhombus;whiteSpace=wrap;html=1;" parent="1" vertex="1">
          <mxGeometry x="140" y="320" width="120" height="80" as="geometry" />
        </mxCell>
        <mxCell id="qkOlhmy2nCl3E5Wx2nFE-2" value="" style="rhombus;whiteSpace=wrap;html=1;" parent="1" vertex="1">
          <mxGeometry x="140" y="440" width="120" height="80" as="geometry" />
        </mxCell>
        <mxCell id="qkOlhmy2nCl3E5Wx2nFE-3" value="" style="rhombus;whiteSpace=wrap;html=1;" parent="1" vertex="1">
          <mxGeometry x="140" y="560" width="120" height="80" as="geometry" />
        </mxCell>
        <mxCell id="qkOlhmy2nCl3E5Wx2nFE-4" value="pilihan == 2" style="text;html=1;align=center;verticalAlign=middle;resizable=0;points=[];autosize=1;strokeColor=none;fillColor=none;" parent="1" vertex="1">
          <mxGeometry x="155" y="345" width="90" height="30" as="geometry" />
        </mxCell>
        <mxCell id="qkOlhmy2nCl3E5Wx2nFE-5" value="pilihan == 3" style="text;html=1;align=center;verticalAlign=middle;resizable=0;points=[];autosize=1;strokeColor=none;fillColor=none;" parent="1" vertex="1">
          <mxGeometry x="155" y="465" width="90" height="30" as="geometry" />
        </mxCell>
        <mxCell id="qkOlhmy2nCl3E5Wx2nFE-6" value="pilihan == 4" style="text;html=1;align=center;verticalAlign=middle;resizable=0;points=[];autosize=1;strokeColor=none;fillColor=none;" parent="1" vertex="1">
          <mxGeometry x="155" y="585" width="90" height="30" as="geometry" />
        </mxCell>
        <mxCell id="qkOlhmy2nCl3E5Wx2nFE-7" value="" style="rhombus;whiteSpace=wrap;html=1;" parent="1" vertex="1">
          <mxGeometry x="140" y="680" width="120" height="80" as="geometry" />
        </mxCell>
        <mxCell id="qkOlhmy2nCl3E5Wx2nFE-8" value="pilihan == 5" style="text;html=1;align=center;verticalAlign=middle;resizable=0;points=[];autosize=1;strokeColor=none;fillColor=none;" parent="1" vertex="1">
          <mxGeometry x="155" y="705" width="90" height="30" as="geometry" />
        </mxCell>
        <mxCell id="2sDDKDAFIOVQS7-qqQUq-2" value="" style="edgeStyle=none;orthogonalLoop=1;jettySize=auto;html=1;rounded=0;" parent="1" edge="1">
          <mxGeometry width="100" relative="1" as="geometry">
            <mxPoint x="200.71" y="160" as="sourcePoint" />
            <mxPoint x="199.28" y="200" as="targetPoint" />
            <Array as="points" />
          </mxGeometry>
        </mxCell>
        <mxCell id="2sDDKDAFIOVQS7-qqQUq-4" value="" style="edgeStyle=none;orthogonalLoop=1;jettySize=auto;html=1;rounded=0;entryX=0.5;entryY=0;entryDx=0;entryDy=0;" parent="1" target="qkOlhmy2nCl3E5Wx2nFE-1" edge="1">
          <mxGeometry width="100" relative="1" as="geometry">
            <mxPoint x="199.71" y="280" as="sourcePoint" />
            <mxPoint x="199.71" y="310" as="targetPoint" />
            <Array as="points" />
          </mxGeometry>
        </mxCell>
        <mxCell id="2sDDKDAFIOVQS7-qqQUq-5" value="" style="edgeStyle=none;orthogonalLoop=1;jettySize=auto;html=1;rounded=0;exitX=0.5;exitY=1;exitDx=0;exitDy=0;entryX=0.5;entryY=0;entryDx=0;entryDy=0;" parent="1" source="qkOlhmy2nCl3E5Wx2nFE-1" target="qkOlhmy2nCl3E5Wx2nFE-2" edge="1">
          <mxGeometry width="100" relative="1" as="geometry">
            <mxPoint x="230" y="420" as="sourcePoint" />
            <mxPoint x="280" y="440" as="targetPoint" />
            <Array as="points" />
          </mxGeometry>
        </mxCell>
        <mxCell id="2sDDKDAFIOVQS7-qqQUq-6" value="" style="edgeStyle=none;orthogonalLoop=1;jettySize=auto;html=1;rounded=0;exitX=0.5;exitY=1;exitDx=0;exitDy=0;" parent="1" source="qkOlhmy2nCl3E5Wx2nFE-2" target="qkOlhmy2nCl3E5Wx2nFE-3" edge="1">
          <mxGeometry width="100" relative="1" as="geometry">
            <mxPoint x="230" y="520" as="sourcePoint" />
            <mxPoint x="330" y="520" as="targetPoint" />
            <Array as="points" />
          </mxGeometry>
        </mxCell>
        <mxCell id="2sDDKDAFIOVQS7-qqQUq-7" value="" style="edgeStyle=none;orthogonalLoop=1;jettySize=auto;html=1;rounded=0;exitX=0.5;exitY=1;exitDx=0;exitDy=0;" parent="1" source="qkOlhmy2nCl3E5Wx2nFE-3" target="qkOlhmy2nCl3E5Wx2nFE-7" edge="1">
          <mxGeometry width="100" relative="1" as="geometry">
            <mxPoint x="220" y="650" as="sourcePoint" />
            <mxPoint x="320" y="650" as="targetPoint" />
            <Array as="points" />
          </mxGeometry>
        </mxCell>
        <mxCell id="2sDDKDAFIOVQS7-qqQUq-8" value="" style="edgeStyle=none;orthogonalLoop=1;jettySize=auto;html=1;rounded=0;" parent="1" edge="1">
          <mxGeometry width="100" relative="1" as="geometry">
            <mxPoint x="260" y="239.71" as="sourcePoint" />
            <mxPoint x="300" y="240" as="targetPoint" />
            <Array as="points" />
          </mxGeometry>
        </mxCell>
        <mxCell id="2sDDKDAFIOVQS7-qqQUq-10" value="input suhu&lt;div&gt;dalam celcius&lt;/div&gt;" style="shape=parallelogram;perimeter=parallelogramPerimeter;whiteSpace=wrap;html=1;fixedSize=1;" parent="1" vertex="1">
          <mxGeometry x="290" y="210" width="120" height="60" as="geometry" />
        </mxCell>
        <mxCell id="2sDDKDAFIOVQS7-qqQUq-11" value="" style="edgeStyle=none;orthogonalLoop=1;jettySize=auto;html=1;rounded=0;" parent="1" edge="1">
          <mxGeometry width="100" relative="1" as="geometry">
            <mxPoint x="280" y="220" as="sourcePoint" />
            <mxPoint x="310" y="220" as="targetPoint" />
            <Array as="points" />
          </mxGeometry>
        </mxCell>
        <mxCell id="2sDDKDAFIOVQS7-qqQUq-12" value="imput suhu&lt;div&gt;dalam fahrenheit&lt;/div&gt;" style="shape=parallelogram;perimeter=parallelogramPerimeter;whiteSpace=wrap;html=1;fixedSize=1;size=20;" parent="1" vertex="1">
          <mxGeometry x="290" y="330" width="120" height="60" as="geometry" />
        </mxCell>
        <mxCell id="2sDDKDAFIOVQS7-qqQUq-13" value="" style="edgeStyle=none;orthogonalLoop=1;jettySize=auto;html=1;rounded=0;entryX=0;entryY=0.5;entryDx=0;entryDy=0;" parent="1" target="2sDDKDAFIOVQS7-qqQUq-12" edge="1">
          <mxGeometry width="100" relative="1" as="geometry">
            <mxPoint x="260" y="359.71" as="sourcePoint" />
            <mxPoint x="290" y="360" as="targetPoint" />
            <Array as="points" />
          </mxGeometry>
        </mxCell>
        <mxCell id="2sDDKDAFIOVQS7-qqQUq-15" value="" style="edgeStyle=none;orthogonalLoop=1;jettySize=auto;html=1;rounded=0;" parent="1" edge="1">
          <mxGeometry width="100" relative="1" as="geometry">
            <mxPoint x="280" y="340" as="sourcePoint" />
            <mxPoint x="310" y="340" as="targetPoint" />
            <Array as="points" />
          </mxGeometry>
        </mxCell>
        <mxCell id="2sDDKDAFIOVQS7-qqQUq-16" value="input suhu&lt;div&gt;dalam reamur&lt;/div&gt;" style="shape=parallelogram;perimeter=parallelogramPerimeter;whiteSpace=wrap;html=1;fixedSize=1;" parent="1" vertex="1">
          <mxGeometry x="290" y="450" width="120" height="60" as="geometry" />
        </mxCell>
        <mxCell id="2sDDKDAFIOVQS7-qqQUq-18" value="" style="edgeStyle=none;orthogonalLoop=1;jettySize=auto;html=1;rounded=0;" parent="1" edge="1">
          <mxGeometry width="100" relative="1" as="geometry">
            <mxPoint x="260" y="479.71" as="sourcePoint" />
            <mxPoint x="300" y="480" as="targetPoint" />
            <Array as="points" />
          </mxGeometry>
        </mxCell>
        <mxCell id="2sDDKDAFIOVQS7-qqQUq-19" value="" style="edgeStyle=none;orthogonalLoop=1;jettySize=auto;html=1;rounded=0;" parent="1" edge="1">
          <mxGeometry width="100" relative="1" as="geometry">
            <mxPoint x="280" y="460" as="sourcePoint" />
            <mxPoint x="310" y="460" as="targetPoint" />
            <Array as="points" />
          </mxGeometry>
        </mxCell>
        <mxCell id="2sDDKDAFIOVQS7-qqQUq-20" value="input suhu&lt;div&gt;dalam kelvin&lt;/div&gt;" style="shape=parallelogram;perimeter=parallelogramPerimeter;whiteSpace=wrap;html=1;fixedSize=1;" parent="1" vertex="1">
          <mxGeometry x="290" y="570" width="120" height="60" as="geometry" />
        </mxCell>
        <mxCell id="2sDDKDAFIOVQS7-qqQUq-21" value="" style="edgeStyle=none;orthogonalLoop=1;jettySize=auto;html=1;rounded=0;" parent="1" edge="1">
          <mxGeometry width="100" relative="1" as="geometry">
            <mxPoint x="260" y="599.71" as="sourcePoint" />
            <mxPoint x="300" y="600" as="targetPoint" />
            <Array as="points" />
          </mxGeometry>
        </mxCell>
        <mxCell id="2sDDKDAFIOVQS7-qqQUq-22" value="" style="edgeStyle=none;orthogonalLoop=1;jettySize=auto;html=1;rounded=0;" parent="1" edge="1">
          <mxGeometry width="100" relative="1" as="geometry">
            <mxPoint x="280" y="580" as="sourcePoint" />
            <mxPoint x="310" y="580" as="targetPoint" />
            <Array as="points" />
          </mxGeometry>
        </mxCell>
        <mxCell id="2sDDKDAFIOVQS7-qqQUq-23" value="cout &amp;lt;&amp;lt; &quot;Fahrenheit: &quot; &amp;lt;&amp;lt; (suhu * 9/5) + 32 &amp;lt;&amp;lt; endl;&lt;div&gt;cout &amp;lt;&amp;lt; &quot;Reamur: &quot; &amp;lt;&amp;lt; (suhu * 4/5) &amp;lt;&amp;lt; endl;&lt;/div&gt;&lt;div&gt;cout &amp;lt;&amp;lt; &quot;Kelvin: &quot; &amp;lt;&amp;lt; (suhu + 273.15) &amp;lt;&amp;lt; endl;&lt;/div&gt;" style="whiteSpace=wrap;html=1;" parent="1" vertex="1">
          <mxGeometry x="440" y="210" width="330" height="60" as="geometry" />
        </mxCell>
        <mxCell id="2sDDKDAFIOVQS7-qqQUq-25" value="" style="edgeStyle=none;orthogonalLoop=1;jettySize=auto;html=1;rounded=0;exitX=1;exitY=0.5;exitDx=0;exitDy=0;" parent="1" source="2sDDKDAFIOVQS7-qqQUq-10" edge="1">
          <mxGeometry width="100" relative="1" as="geometry">
            <mxPoint x="410" y="240" as="sourcePoint" />
            <mxPoint x="440" y="240" as="targetPoint" />
            <Array as="points" />
          </mxGeometry>
        </mxCell>
        <mxCell id="YAXBkxqqzpNbBqfaw8Oz-4" value="" style="edgeStyle=none;orthogonalLoop=1;jettySize=auto;html=1;rounded=0;exitX=1;exitY=0.5;exitDx=0;exitDy=0;" parent="1" edge="1">
          <mxGeometry width="100" relative="1" as="geometry">
            <mxPoint x="400" y="359.71" as="sourcePoint" />
            <mxPoint x="440" y="359.71" as="targetPoint" />
            <Array as="points" />
          </mxGeometry>
        </mxCell>
        <mxCell id="YAXBkxqqzpNbBqfaw8Oz-5" value="" style="edgeStyle=none;orthogonalLoop=1;jettySize=auto;html=1;rounded=0;exitX=1;exitY=0.5;exitDx=0;exitDy=0;" parent="1" edge="1">
          <mxGeometry width="100" relative="1" as="geometry">
            <mxPoint x="400" y="479.71000000000004" as="sourcePoint" />
            <mxPoint x="440" y="479.71000000000004" as="targetPoint" />
            <Array as="points" />
          </mxGeometry>
        </mxCell>
        <mxCell id="YAXBkxqqzpNbBqfaw8Oz-6" value="" style="edgeStyle=none;orthogonalLoop=1;jettySize=auto;html=1;rounded=0;exitX=1;exitY=0.5;exitDx=0;exitDy=0;" parent="1" edge="1">
          <mxGeometry width="100" relative="1" as="geometry">
            <mxPoint x="400" y="599.71" as="sourcePoint" />
            <mxPoint x="440" y="599.71" as="targetPoint" />
            <Array as="points" />
          </mxGeometry>
        </mxCell>
        <mxCell id="YAXBkxqqzpNbBqfaw8Oz-7" value="cout &amp;lt;&amp;lt; &quot;Celcius: &quot; &amp;lt;&amp;lt; (suhu * 5/4) &amp;lt;&amp;lt; endl;&lt;div&gt;cout &amp;lt;&amp;lt; &quot;Fahrenheit: &quot; &amp;lt;&amp;lt; (suhu * 9/4) + 32 &amp;lt;&amp;lt; endl;&lt;/div&gt;&lt;div&gt;cout &amp;lt;&amp;lt; &quot;Kelvin: &quot; &amp;lt;&amp;lt; (suhu * 5/4) + 273.15 &amp;lt;&amp;lt; endl;&lt;/div&gt;" style="whiteSpace=wrap;html=1;" parent="1" vertex="1">
          <mxGeometry x="440" y="450" width="330" height="60" as="geometry" />
        </mxCell>
        <mxCell id="YAXBkxqqzpNbBqfaw8Oz-8" value="cout &amp;lt;&amp;lt; &quot;Celcius: &quot; &amp;lt;&amp;lt; (suhu - 32) * 5/9 &amp;lt;&amp;lt; endl;&lt;div&gt;cout &amp;lt;&amp;lt; &quot;Reamur: &quot; &amp;lt;&amp;lt; (suhu - 32) * 4/9 &amp;lt;&amp;lt; endl;&lt;/div&gt;&lt;div&gt;cout &amp;lt;&amp;lt; &quot;Kelvin: &quot; &amp;lt;&amp;lt; (suhu - 32) * 5/9 + 273.15 &amp;lt;&amp;lt; endl;&lt;/div&gt;" style="whiteSpace=wrap;html=1;" parent="1" vertex="1">
          <mxGeometry x="440" y="330" width="330" height="60" as="geometry" />
        </mxCell>
        <mxCell id="YAXBkxqqzpNbBqfaw8Oz-9" value="cout &amp;lt;&amp;lt; &quot;Celcius: &quot; &amp;lt;&amp;lt; (suhu - 273.15) &amp;lt;&amp;lt; endl;&lt;div&gt;cout &amp;lt;&amp;lt; &quot;Fahrenheit: &quot; &amp;lt;&amp;lt; (suhu - 273.15) * 9/5 + 32 &amp;lt;&amp;lt; endl;&lt;/div&gt;&lt;div&gt;cout &amp;lt;&amp;lt; &quot;Reamur: &quot; &amp;lt;&amp;lt; (suhu - 273.15) * 4/5 &amp;lt;&amp;lt; endl;&lt;/div&gt;" style="whiteSpace=wrap;html=1;" parent="1" vertex="1">
          <mxGeometry x="440" y="570" width="330" height="60" as="geometry" />
        </mxCell>
        <mxCell id="YAXBkxqqzpNbBqfaw8Oz-22" style="edgeStyle=orthogonalEdgeStyle;rounded=0;orthogonalLoop=1;jettySize=auto;html=1;exitX=1;exitY=1;exitDx=0;exitDy=0;" parent="1" source="YAXBkxqqzpNbBqfaw8Oz-10" edge="1">
          <mxGeometry relative="1" as="geometry">
            <mxPoint x="960" y="262.3636363636364" as="targetPoint" />
          </mxGeometry>
        </mxCell>
        <mxCell id="YAXBkxqqzpNbBqfaw8Oz-10" value="hasil konversi suhu&lt;div&gt;ke fahrenheit, reamur,&lt;/div&gt;&lt;div&gt;dan kelvin&lt;/div&gt;" style="shape=parallelogram;perimeter=parallelogramPerimeter;whiteSpace=wrap;html=1;fixedSize=1;" parent="1" vertex="1">
          <mxGeometry x="810" y="210" width="140" height="60" as="geometry" />
        </mxCell>
        <mxCell id="YAXBkxqqzpNbBqfaw8Oz-23" style="edgeStyle=orthogonalEdgeStyle;rounded=0;orthogonalLoop=1;jettySize=auto;html=1;exitX=1;exitY=1;exitDx=0;exitDy=0;" parent="1" source="YAXBkxqqzpNbBqfaw8Oz-12" edge="1">
          <mxGeometry relative="1" as="geometry">
            <mxPoint x="960" y="382.3636363636364" as="targetPoint" />
          </mxGeometry>
        </mxCell>
        <mxCell id="YAXBkxqqzpNbBqfaw8Oz-12" value="hasil konversi suhu&lt;div&gt;ke celcius, reamur,&lt;/div&gt;&lt;div&gt;dan kelvin&lt;/div&gt;" style="shape=parallelogram;perimeter=parallelogramPerimeter;whiteSpace=wrap;html=1;fixedSize=1;" parent="1" vertex="1">
          <mxGeometry x="810" y="330" width="140" height="60" as="geometry" />
        </mxCell>
        <mxCell id="YAXBkxqqzpNbBqfaw8Oz-24" style="edgeStyle=orthogonalEdgeStyle;rounded=0;orthogonalLoop=1;jettySize=auto;html=1;exitX=1;exitY=1;exitDx=0;exitDy=0;" parent="1" source="YAXBkxqqzpNbBqfaw8Oz-13" edge="1">
          <mxGeometry relative="1" as="geometry">
            <mxPoint x="960" y="502.3636363636364" as="targetPoint" />
          </mxGeometry>
        </mxCell>
        <mxCell id="YAXBkxqqzpNbBqfaw8Oz-13" value="hasil konversi suhu&lt;div&gt;ke celcius, fahrenheit,&lt;/div&gt;&lt;div&gt;dan kelvin&lt;/div&gt;" style="shape=parallelogram;perimeter=parallelogramPerimeter;whiteSpace=wrap;html=1;fixedSize=1;" parent="1" vertex="1">
          <mxGeometry x="810" y="450" width="140" height="60" as="geometry" />
        </mxCell>
        <mxCell id="YAXBkxqqzpNbBqfaw8Oz-25" style="edgeStyle=orthogonalEdgeStyle;rounded=0;orthogonalLoop=1;jettySize=auto;html=1;exitX=1;exitY=1;exitDx=0;exitDy=0;" parent="1" source="YAXBkxqqzpNbBqfaw8Oz-14" edge="1">
          <mxGeometry relative="1" as="geometry">
            <mxPoint x="960" y="622.3636363636364" as="targetPoint" />
          </mxGeometry>
        </mxCell>
        <mxCell id="YAXBkxqqzpNbBqfaw8Oz-14" value="hasil konversi suhu&lt;div&gt;ke celcius, fahrenheit,&lt;/div&gt;&lt;div&gt;dan reamur&lt;/div&gt;" style="shape=parallelogram;perimeter=parallelogramPerimeter;whiteSpace=wrap;html=1;fixedSize=1;" parent="1" vertex="1">
          <mxGeometry x="810" y="570" width="140" height="60" as="geometry" />
        </mxCell>
        <mxCell id="YAXBkxqqzpNbBqfaw8Oz-18" value="" style="edgeStyle=none;orthogonalLoop=1;jettySize=auto;html=1;rounded=0;entryX=0;entryY=0.5;entryDx=0;entryDy=0;" parent="1" target="YAXBkxqqzpNbBqfaw8Oz-10" edge="1">
          <mxGeometry width="100" relative="1" as="geometry">
            <mxPoint x="770" y="239.64" as="sourcePoint" />
            <mxPoint x="800" y="239.64" as="targetPoint" />
            <Array as="points" />
          </mxGeometry>
        </mxCell>
        <mxCell id="YAXBkxqqzpNbBqfaw8Oz-19" value="" style="edgeStyle=none;orthogonalLoop=1;jettySize=auto;html=1;rounded=0;entryX=0;entryY=0.5;entryDx=0;entryDy=0;" parent="1" target="YAXBkxqqzpNbBqfaw8Oz-12" edge="1">
          <mxGeometry width="100" relative="1" as="geometry">
            <mxPoint x="770" y="360" as="sourcePoint" />
            <mxPoint x="840" y="360" as="targetPoint" />
            <Array as="points" />
          </mxGeometry>
        </mxCell>
        <mxCell id="YAXBkxqqzpNbBqfaw8Oz-20" value="" style="edgeStyle=none;orthogonalLoop=1;jettySize=auto;html=1;rounded=0;" parent="1" edge="1">
          <mxGeometry width="100" relative="1" as="geometry">
            <mxPoint x="770" y="480" as="sourcePoint" />
            <mxPoint x="820" y="480" as="targetPoint" />
            <Array as="points" />
          </mxGeometry>
        </mxCell>
        <mxCell id="YAXBkxqqzpNbBqfaw8Oz-21" value="" style="edgeStyle=none;orthogonalLoop=1;jettySize=auto;html=1;rounded=0;" parent="1" edge="1">
          <mxGeometry width="100" relative="1" as="geometry">
            <mxPoint x="770" y="600" as="sourcePoint" />
            <mxPoint x="820" y="600" as="targetPoint" />
            <Array as="points" />
          </mxGeometry>
        </mxCell>
        <mxCell id="YAXBkxqqzpNbBqfaw8Oz-32" style="edgeStyle=orthogonalEdgeStyle;rounded=0;orthogonalLoop=1;jettySize=auto;html=1;exitX=1;exitY=1;exitDx=0;exitDy=0;" parent="1" source="YAXBkxqqzpNbBqfaw8Oz-26" edge="1">
          <mxGeometry relative="1" as="geometry">
            <mxPoint x="450" y="742.6666666666667" as="targetPoint" />
          </mxGeometry>
        </mxCell>
        <mxCell id="YAXBkxqqzpNbBqfaw8Oz-26" value="pilihan anda tidak valid" style="shape=parallelogram;perimeter=parallelogramPerimeter;whiteSpace=wrap;html=1;fixedSize=1;" parent="1" vertex="1">
          <mxGeometry x="290" y="690" width="150" height="60" as="geometry" />
        </mxCell>
        <mxCell id="YAXBkxqqzpNbBqfaw8Oz-28" value="" style="edgeStyle=none;orthogonalLoop=1;jettySize=auto;html=1;rounded=0;" parent="1" edge="1">
          <mxGeometry width="100" relative="1" as="geometry">
            <mxPoint x="260" y="720" as="sourcePoint" />
            <mxPoint x="300" y="720" as="targetPoint" />
            <Array as="points" />
          </mxGeometry>
        </mxCell>
        <mxCell id="YAXBkxqqzpNbBqfaw8Oz-29" value="" style="edgeStyle=none;orthogonalLoop=1;jettySize=auto;html=1;rounded=0;entryX=1;entryY=0.5;entryDx=0;entryDy=0;" parent="1" target="YKMGjBo34bCGhctZxWyf-1" edge="1">
          <mxGeometry width="100" relative="1" as="geometry">
            <mxPoint x="430" y="719.67" as="sourcePoint" />
            <mxPoint x="450" y="130" as="targetPoint" />
            <Array as="points">
              <mxPoint x="1040" y="720" />
              <mxPoint x="1040" y="120" />
            </Array>
          </mxGeometry>
        </mxCell>
        <mxCell id="YAXBkxqqzpNbBqfaw8Oz-30" value="END" style="ellipse;whiteSpace=wrap;html=1;" parent="1" vertex="1">
          <mxGeometry x="490" y="780" width="120" height="80" as="geometry" />
        </mxCell>
        <mxCell id="YAXBkxqqzpNbBqfaw8Oz-33" value="Yes" style="text;html=1;align=center;verticalAlign=middle;resizable=0;points=[];autosize=1;strokeColor=none;fillColor=none;" parent="1" vertex="1">
          <mxGeometry x="250" y="240" width="40" height="30" as="geometry" />
        </mxCell>
        <mxCell id="F3ZpsGOd8XiT_1iHl_Zs-1" value="Yes" style="text;html=1;align=center;verticalAlign=middle;resizable=0;points=[];autosize=1;strokeColor=none;fillColor=none;" parent="1" vertex="1">
          <mxGeometry x="250" y="360" width="40" height="30" as="geometry" />
        </mxCell>
        <mxCell id="F3ZpsGOd8XiT_1iHl_Zs-2" value="Yes" style="text;html=1;align=center;verticalAlign=middle;resizable=0;points=[];autosize=1;strokeColor=none;fillColor=none;" parent="1" vertex="1">
          <mxGeometry x="250" y="480" width="40" height="30" as="geometry" />
        </mxCell>
        <mxCell id="F3ZpsGOd8XiT_1iHl_Zs-3" value="Yes" style="text;html=1;align=center;verticalAlign=middle;resizable=0;points=[];autosize=1;strokeColor=none;fillColor=none;" parent="1" vertex="1">
          <mxGeometry x="250" y="600" width="40" height="30" as="geometry" />
        </mxCell>
        <mxCell id="F3ZpsGOd8XiT_1iHl_Zs-4" value="No" style="text;html=1;align=center;verticalAlign=middle;resizable=0;points=[];autosize=1;strokeColor=none;fillColor=none;" parent="1" vertex="1">
          <mxGeometry x="160" y="280" width="40" height="30" as="geometry" />
        </mxCell>
        <mxCell id="F3ZpsGOd8XiT_1iHl_Zs-5" value="No" style="text;html=1;align=center;verticalAlign=middle;resizable=0;points=[];autosize=1;strokeColor=none;fillColor=none;" parent="1" vertex="1">
          <mxGeometry x="160" y="400" width="40" height="30" as="geometry" />
        </mxCell>
        <mxCell id="F3ZpsGOd8XiT_1iHl_Zs-6" value="No" style="text;html=1;align=center;verticalAlign=middle;resizable=0;points=[];autosize=1;strokeColor=none;fillColor=none;" parent="1" vertex="1">
          <mxGeometry x="160" y="520" width="40" height="30" as="geometry" />
        </mxCell>
        <mxCell id="F3ZpsGOd8XiT_1iHl_Zs-7" value="No" style="text;html=1;align=center;verticalAlign=middle;resizable=0;points=[];autosize=1;strokeColor=none;fillColor=none;" parent="1" vertex="1">
          <mxGeometry x="160" y="640" width="40" height="30" as="geometry" />
        </mxCell>
        <mxCell id="F3ZpsGOd8XiT_1iHl_Zs-9" value="No" style="text;html=1;align=center;verticalAlign=middle;resizable=0;points=[];autosize=1;strokeColor=none;fillColor=none;" parent="1" vertex="1">
          <mxGeometry x="260" y="690" width="40" height="30" as="geometry" />
        </mxCell>
        <mxCell id="F3ZpsGOd8XiT_1iHl_Zs-14" style="edgeStyle=orthogonalEdgeStyle;rounded=0;orthogonalLoop=1;jettySize=auto;html=1;exitX=1;exitY=1;exitDx=0;exitDy=0;" parent="1" source="F3ZpsGOd8XiT_1iHl_Zs-10" edge="1">
          <mxGeometry relative="1" as="geometry">
            <mxPoint x="450" y="842.909090909091" as="targetPoint" />
          </mxGeometry>
        </mxCell>
        <mxCell id="F3ZpsGOd8XiT_1iHl_Zs-10" value="keluar dari program" style="shape=parallelogram;perimeter=parallelogramPerimeter;whiteSpace=wrap;html=1;fixedSize=1;" parent="1" vertex="1">
          <mxGeometry x="290" y="790" width="150" height="60" as="geometry" />
        </mxCell>
        <mxCell id="F3ZpsGOd8XiT_1iHl_Zs-11" value="" style="edgeStyle=none;orthogonalLoop=1;jettySize=auto;html=1;rounded=0;exitX=0.5;exitY=1;exitDx=0;exitDy=0;" parent="1" source="qkOlhmy2nCl3E5Wx2nFE-7" target="F3ZpsGOd8XiT_1iHl_Zs-10" edge="1">
          <mxGeometry width="100" relative="1" as="geometry">
            <mxPoint x="150" y="790" as="sourcePoint" />
            <mxPoint x="260" y="810" as="targetPoint" />
            <Array as="points">
              <mxPoint x="200" y="820" />
            </Array>
          </mxGeometry>
        </mxCell>
        <mxCell id="F3ZpsGOd8XiT_1iHl_Zs-12" value="" style="edgeStyle=none;orthogonalLoop=1;jettySize=auto;html=1;rounded=0;entryX=-0.016;entryY=0.486;entryDx=0;entryDy=0;entryPerimeter=0;exitX=1;exitY=0.5;exitDx=0;exitDy=0;" parent="1" source="F3ZpsGOd8XiT_1iHl_Zs-10" edge="1">
          <mxGeometry width="100" relative="1" as="geometry">
            <mxPoint x="431.92" y="820.39" as="sourcePoint" />
            <mxPoint x="490.00000000000006" y="819.6" as="targetPoint" />
            <Array as="points" />
          </mxGeometry>
        </mxCell>
        <mxCell id="F3ZpsGOd8XiT_1iHl_Zs-15" value="Yes" style="text;html=1;align=center;verticalAlign=middle;resizable=0;points=[];autosize=1;strokeColor=none;fillColor=none;" parent="1" vertex="1">
          <mxGeometry x="250" y="790" width="40" height="30" as="geometry" />
        </mxCell>
        <mxCell id="F3ZpsGOd8XiT_1iHl_Zs-18" value="" style="edgeStyle=none;orthogonalLoop=1;jettySize=auto;html=1;rounded=0;entryX=1;entryY=0.5;entryDx=0;entryDy=0;" parent="1" target="YKMGjBo34bCGhctZxWyf-1" edge="1">
          <mxGeometry width="100" relative="1" as="geometry">
            <mxPoint x="940" y="238.82" as="sourcePoint" />
            <mxPoint x="1040" y="80" as="targetPoint" />
            <Array as="points">
              <mxPoint x="1040" y="239" />
              <mxPoint x="1040" y="120" />
            </Array>
          </mxGeometry>
        </mxCell>
        <mxCell id="F3ZpsGOd8XiT_1iHl_Zs-19" value="" style="edgeStyle=none;orthogonalLoop=1;jettySize=auto;html=1;rounded=0;entryX=1;entryY=0.5;entryDx=0;entryDy=0;" parent="1" target="YKMGjBo34bCGhctZxWyf-1" edge="1">
          <mxGeometry width="100" relative="1" as="geometry">
            <mxPoint x="940" y="359.40999999999997" as="sourcePoint" />
            <mxPoint x="940" y="80" as="targetPoint" />
            <Array as="points">
              <mxPoint x="1040" y="360" />
              <mxPoint x="1040" y="120" />
            </Array>
          </mxGeometry>
        </mxCell>
        <mxCell id="F3ZpsGOd8XiT_1iHl_Zs-20" value="" style="edgeStyle=none;orthogonalLoop=1;jettySize=auto;html=1;rounded=0;exitX=1;exitY=0.5;exitDx=0;exitDy=0;entryX=1;entryY=0.5;entryDx=0;entryDy=0;" parent="1" source="YAXBkxqqzpNbBqfaw8Oz-13" target="YKMGjBo34bCGhctZxWyf-1" edge="1">
          <mxGeometry width="100" relative="1" as="geometry">
            <mxPoint x="950" y="470" as="sourcePoint" />
            <mxPoint x="860" y="130" as="targetPoint" />
            <Array as="points">
              <mxPoint x="1040" y="480" />
              <mxPoint x="1040" y="120" />
            </Array>
          </mxGeometry>
        </mxCell>
        <mxCell id="F3ZpsGOd8XiT_1iHl_Zs-22" value="" style="edgeStyle=none;orthogonalLoop=1;jettySize=auto;html=1;rounded=0;" parent="1" edge="1">
          <mxGeometry width="100" relative="1" as="geometry">
            <mxPoint x="940" y="598.82" as="sourcePoint" />
            <mxPoint x="240" y="120" as="targetPoint" />
            <Array as="points">
              <mxPoint x="1040" y="599" />
              <mxPoint x="1040" y="120" />
            </Array>
          </mxGeometry>
        </mxCell>
      </root>
    </mxGraphModel>
  </diagram>
</mxfile>
